<svg xmlns="http://www.w3.org/2000/svg" style="display: none;">
    <!-- Dashboard / Home -->
    <symbol id="icon-dashboard" viewBox="0 0 24 24">
        <path
            d="M3 13h8V3H3v10zm10 8h8v-6h-8v6zm0-8h8V3h-8v10zM3 21h8v-6H3v6z"
            fill="currentColor"
            />
    </symbol>
    
    <!-- Settings / Gear -->
    <symbol id="icon-settings" viewBox="0 0 640 640">
        <path
            d="M259.1 73.5C262.1 58.7 275.2 48 290.4 48L350.2 48C365.4 48 378.5 58.7 381.5 73.5L396 143.5C410.1 149.5 423.3 157.2 435.3 166.3L503.1 143.8C517.5 139 533.3 145 540.9 158.2L570.8 210C578.4 223.2 575.7 239.8 564.3 249.9L511 297.3C511.9 304.7 512.3 312.3 512.3 320C512.3 327.7 511.8 335.3 511 342.7L564.4 390.2C575.8 400.3 578.4 417 570.9 430.1L541 481.9C533.4 495 517.6 501.1 503.2 496.3L435.4 473.8C423.3 482.9 410.1 490.5 396.1 496.6L381.7 566.5C378.6 581.4 365.5 592 350.4 592L290.6 592C275.4 592 262.3 581.3 259.3 566.5L244.9 496.6C230.8 490.6 217.7 482.9 205.6 473.8L137.5 496.3C123.1 501.1 107.3 495.1 99.7 481.9L69.8 430.1C62.2 416.9 64.9 400.3 76.3 390.2L129.7 342.7C128.8 335.3 128.4 327.7 128.4 320C128.4 312.3 128.9 304.7 129.7 297.3L76.3 249.8C64.9 239.7 62.3 223 69.8 209.9L99.7 158.1C107.3 144.9 123.1 138.9 137.5 143.7L205.3 166.2C217.4 157.1 230.6 149.5 244.6 143.4L259.1 73.5zM320.3 400C364.5 399.8 400.2 363.9 400 319.7C399.8 275.5 363.9 239.8 319.7 240C275.5 240.2 239.8 276.1 240 320.3C240.2 364.5 276.1 400.2 320.3 400z"
            fill="currentColor"
            />
    </symbol>
    
    <!-- Menu / Burger -->
    <symbol id="icon-burger" viewBox="0 0 640 640">
        <path
            d="M96 160C96 142.3 110.3 128 128 128L512 128C529.7 128 544 142.3 544 160C544 177.7 529.7 192 512 192L128 192C110.3 192 96 177.7 96 160zM96 320C96 302.3 110.3 288 128 288L512 288C529.7 288 544 302.3 544 320C544 337.7 529.7 352 512 352L128 352C110.3 352 96 337.7 96 320zM544 480C544 497.7 529.7 512 512 512L128 512C110.3 512 96 497.7 96 480C96 462.3 110.3 448 128 448L512 448C529.7 448 544 462.3 544 480z"
            fill="currentColor"
            />
    </symbol>
    
    <!-- Exit / Xmark -->
    <symbol id="icon-xmark" viewBox="0 0 640 640">
        <path
            d="M183.1 137.4C170.6 124.9 150.3 124.9 137.8 137.4C125.3 149.9 125.3 170.2 137.8 182.7L275.2 320L137.9 457.4C125.4 469.9 125.4 490.2 137.9 502.7C150.4 515.2 170.7 515.2 183.2 502.7L320.5 365.3L457.9 502.6C470.4 515.1 490.7 515.1 503.2 502.6C515.7 490.1 515.7 469.8 503.2 457.3L365.8 320L503.1 182.6C515.6 170.1 515.6 149.8 503.1 137.3C490.6 124.8 470.3 124.8 457.8 137.3L320.5 274.7L183.1 137.4z"
            fill="currentColor"
            />
    </symbol>
    
    <!-- Sidebar / Open -->
    <symbol id="icon-sidebar-open" viewBox="0 0 640 640">
        <path
            d="M569 337C578.4 327.6 578.4 312.4 569 303.1L425 159C418.1 152.1 407.8 150.1 398.8 153.8C389.8 157.5 384 166.3 384 176L384 256L272 256C245.5 256 224 277.5 224 304L224 336C224 362.5 245.5 384 272 384L384 384L384 464C384 473.7 389.8 482.5 398.8 486.2C407.8 489.9 418.1 487.9 425 481L569 337zM224 160C241.7 160 256 145.7 256 128C256 110.3 241.7 96 224 96L160 96C107 96 64 139 64 192L64 448C64 501 107 544 160 544L224 544C241.7 544 256 529.7 256 512C256 494.3 241.7 480 224 480L160 480C142.3 480 128 465.7 128 448L128 192C128 174.3 142.3 160 160 160L224 160z"
            fill="currentColor"
            />
    </symbol>
    
    <!-- Sidebar / Close -->
    <symbol id="icon-sidebar-close" viewBox="0 0 640 640">
        <path
            d="M71 337C61.6 327.6 61.6 312.4 71 303.1L215 159C221.9 152.1 232.2 150.1 241.2 153.8C250.2 157.5 256 166.3 256 176L256 256L368 256C394.5 256 416 277.5 416 304L416 336C416 362.5 394.5 384 368 384L256 384L256 464C256 473.7 250.2 482.5 241.2 486.2C232.2 489.9 221.9 487.9 215 481L71 337zM416 160C398.3 160 384 145.7 384 128C384 110.3 398.3 96 416 96L480 96C533 96 576 139 576 192L576 448C576 501 533 544 480 544L416 544C398.3 544 384 529.7 384 512C384 494.3 398.3 480 416 480L480 480C497.7 480 512 465.7 512 448L512 192C512 174.3 497.7 160 480 160L416 160z"
            fill="currentColor"
            />
    </symbol>
</svg>
